<?xml version="1.0" standalone="no"?>
<!DOCTYPE svg PUBLIC "-//W3C//DTD SVG 20010904//EN"
 "http://www.w3.org/TR/2001/REC-SVG-20010904/DTD/svg10.dtd">
<svg version="1.0" xmlns="http://www.w3.org/2000/svg"
 width="150.000000pt" height="254.000000pt" viewBox="0 0 150.000000 254.000000"
 preserveAspectRatio="xMidYMid meet">

<g transform="translate(0.000000,254.000000) scale(0.100000,-0.100000)"
fill="#000000" stroke="none">
<path d="M225 2416 c-16 -7 -41 -26 -55 -41 l-25 -27 -3 -774 -2 -774 45 0 45
0 0 754 c0 673 2 756 16 770 14 14 75 16 519 16 l504 0 15 -22 c14 -20 16
-110 16 -770 l0 -748 45 0 45 0 -2 763 c-3 832 -1 796 -61 841 -28 21 -38 21
-550 23 -420 2 -528 0 -552 -11z"/>
<path d="M118 583 l-38 -4 0 -100 0 -100 28 3 c19 2 28 9 30 26 3 19 9 22 53
22 62 0 89 23 89 78 0 65 -50 88 -162 75z m107 -73 c0 -22 -5 -25 -42 -28 -42
-3 -43 -2 -43 28 0 30 1 31 43 28 37 -3 42 -6 42 -28z"/>
<path d="M703 576 c-40 -18 -53 -43 -53 -101 0 -68 30 -95 108 -95 71 0 108
23 118 75 8 42 -10 96 -36 113 -32 20 -101 24 -137 8z m91 -46 c22 -8 26 -16
26 -48 0 -45 -14 -62 -53 -62 -49 0 -67 16 -67 61 0 32 4 41 23 49 29 12 41
12 71 0z"/>
<path d="M360 480 c0 -99 0 -100 24 -100 21 0 25 5 28 38 l3 37 50 0 50 0 3
-37 c3 -33 7 -38 28 -38 24 0 24 1 24 100 l0 100 -25 0 c-22 0 -25 -4 -25 -40
l0 -40 -55 0 -55 0 0 40 c0 36 -2 40 -25 40 l-25 0 0 -100z"/>
<path d="M960 480 c0 -99 0 -100 25 -100 23 0 24 4 27 61 l3 62 48 -62 c36
-45 55 -61 73 -61 24 0 24 1 24 100 0 99 0 100 -25 100 -23 0 -24 -4 -27 -61
l-3 -62 -48 62 c-36 45 -55 61 -73 61 -24 0 -24 -1 -24 -100z"/>
<path d="M1250 480 l0 -101 93 3 c84 3 92 5 92 23 0 18 -8 20 -67 23 -52 2
-68 6 -68 17 0 11 14 15 56 15 47 0 55 3 52 18 -2 13 -15 18 -56 20 -44 3 -52
6 -52 23 0 17 7 19 71 19 61 0 70 2 65 16 -3 9 -6 18 -6 20 0 2 -40 4 -90 4
l-90 0 0 -100z"/>
<path d="M370 195 c0 -13 46 -15 393 -13 253 2 392 7 392 13 0 6 -139 11 -392
13 -347 2 -393 0 -393 -13z"/>
</g>
</svg>
